# xmcd
#
# Track frame offsets: 
#        150
#        17624
#        29364
#        46043
#        61618
#        78327
#        94714
#        111601
#        127945
#        143475
#
# Disc length: 2093 seconds
#
# Revision: 0
# Processed by: cddbd v1.4PL0 Copyright (c) Steve Scherf et al.
# Submitted via: ExactAudioCopy v0.90a11
#
DISCID=71082b0a
DTITLE=Kevin Smith - Bluebonnet Blues
DYEAR=1900
DGENRE=
TTITLE0=The Austin Boys
TTITLE1=68 Calories
TTITLE2=If Texas Ain't Heaven
TTITLE3=Bluebonnet Blues
TTITLE4=Livin' A Merle Haggard Song
TTITLE5=I Wanna Hear That Texas Music
TTITLE6=L.A. County
TTITLE7=Just Like The Blowin' Wind
TTITLE8=Time Spent
TTITLE9=Sittin' On The Front Porch
EXTD=
EXTT0=
EXTT1=
EXTT2=
EXTT3=
EXTT4=
EXTT5=
EXTT6=
EXTT7=
EXTT8=
EXTT9=
PLAYORDER=
